# xmcd
#
# Track frame offsets: 
#        150
#        20018
#        45681
#        66435
#        89681
#        110293
#        129050
#        149178
#        170067
#        193031
#        212626
#        233629
#        258350
#        278735
#        300429
#        324004
#
# Disc length: 4692 seconds
#
# Revision: 1
# Processed by: cddbd v1.5.2PL0 Copyright (c) Steve Scherf et al.
# Submitted via: ExactAudioCopy v1.0b2
#
DISCID=e5125210
DTITLE=アンディ・エズリン・トリオ - J-スタンダーズ・フォー・ピアノ・ジャズ・90'sセレクション
DYEAR=2013
DGENRE=Jazz
TTITLE0=Can you Celebrate?
TTITLE1=つつみ込むように
TTITLE2=夜空ノムコウ
TTITLE3=長い間
TTITLE4=First Love
TTITLE5=フラワー
TTITLE6=However
TTITLE7=Time Goes By
TTITLE8=未来予想図
TTITLE9=涙のキッス
TTITLE10=Pride
TTITLE11=Eyes to me
TTITLE12=ら・ら・ら
TTITLE13=愛の言霊
TTITLE14=Energy Flow
TTITLE15=家に帰ろう
EXTD=YEAR: 2013
EXTT0=
EXTT1=
EXTT2=
EXTT3=
EXTT4=
EXTT5=
EXTT6=
EXTT7=
EXTT8=
EXTT9=
EXTT10=
EXTT11=
EXTT12=
EXTT13=
EXTT14=
EXTT15=
PLAYORDER=
